#!OML:ASF H:\LiuWeirdWalks\Patient Classification 1\Patient 1\Session 1\male.ASF
:FULLY-SPECIFIED
:DEGREES
604
root 2.64026 18.0267 31.2293 0.0480278 1.41238 -2.03089
lowerback 4.35711 5.82696 3.96023
upperback -1.55942 8.02724 0.471599
thorax -3.56897 3.90622 -2.26472
lowerneck -21.1148 -2.88777 0.586443
upperneck 28.0628 -4.44226 0.317506
head 12.8856 -1.822 -0.729872
rclavicle -1.30049e-014 -2.11706e-014
rhumerus -29.019 11.9136 -85.3653
rradius 55.0348
rwrist -3.28877
rhand -12.1926 7.01562
rfingers 7.12502
rthumb 13.8714 -22.5018
lclavicle -1.30049e-014 -2.11706e-014
lhumerus -42.1813 0.722132 73.1337
lradius 44.8785
lwrist 7.12323
lhand -15.3728 -5.09752
lfingers 7.12502
lthumb 10.8052 24.6045
rfemur -8.37473 -12.5549 15.8051
rtibia 57.6863
rfoot -4.99714 -22.4295
rtoes 1.67159
lfemur -9.87152 0.138648 -21.3772
ltibia 30.8801
lfoot -8.60101 16.0188
ltoes -10.6715
605
root 2.63802 18.0208 31.324 -0.0521052 1.2666 -1.81181
lowerback 4.28211 5.18511 3.11709
upperback -1.53097 7.12989 0.776365
thorax -3.69205 3.48079 -1.44034
lowerneck -20.6577 -2.36527 1.27828
upperneck 27.9748 -3.76068 -0.215578
head 12.7279 -1.52836 -0.926765
rclavicle 3.20478e-014 5.96354e-016
rhumerus -29.3601 12.4222 -85.1798
rradius 54.6516
rwrist -3.47201
rhand -12.3232 6.77421
rfingers 7.12502
rthumb 13.7456 -22.7518
lclavicle 3.20478e-014 5.96354e-016
lhumerus -41.7152 -0.193162 74.1997
lradius 44.7059
lwrist 6.88551
lhand -15.406 -5.63612
lfingers 7.12502
lthumb 10.7732 24.0676
rfemur -9.51399 -12.1616 15.7323
rtibia 57.588
rfoot -6.10861 -22.4119
rtoes 1.19223
lfemur -9.36975 0.175603 -21.6642
ltibia 30.8388
lfoot -8.69098 16.413
ltoes -10.7966
606
root 2.63637 18.0148 31.4148 -0.085123 1.14845 -1.46037
lowerback 4.20143 4.72849 2.39381
upperback -1.42759 6.47976 0.934348
thorax -3.6637 3.17808 -0.832583
lowerneck -20.5504 -2.09438 1.59684
upperneck 27.9154 -3.39338 -0.500373
head 12.6723 -1.3749 -1.02606
rclavicle 6.64686e-014 9.93923e-015
rhumerus -29.5241 12.2702 -84.6739
rradius 54.2581
rwrist -3.59466
rhand -12.4237 6.53005
rfingers 7.12502
rthumb 13.6487 -23.0024
lclavicle 6.64686e-014 9.93923e-015
lhumerus -40.7868 -1.5775 75.4217
lradius 44.4884
lwrist 6.68819
lhand -15.4663 -6.14661
lfingers 7.12502
lthumb 10.7149 23.5601
rfemur -10.7333 -11.7898 15.5155
rtibia 57.3997
rfoot -7.07714 -22.3952
rtoes 0.596723
lfemur -8.9506 0.176745 -22.0914
ltibia 30.7866
lfoot -8.76231 16.7487
ltoes -10.9582
607
root 2.63448 18.0087 31.5051 -0.155209 1.09078 -1.22333
lowerback 4.20213 4.34935 1.91504
upperback -1.28111 5.9487 1.07856
thorax -3.58995 2.9286 -0.38184
lowerneck -20.6644 -1.95173 1.707
upperneck 27.9001 -3.18236 -0.660662
head 12.6867 -1.29344 -1.07292
rclavicle -3.82412e-014 -5.96354e-015
rhumerus -29.6163 11.7463 -83.9713
rradius 53.8518
rwrist -3.64922
rhand -12.4954 6.27063
rfingers 7.12502
rthumb 13.5795 -23.2665
lclavicle -3.82412e-014 -5.96354e-015
lhumerus -39.6386 -3.18302 76.6566
lradius 44.2476
lwrist 6.44932
lhand -15.4797 -6.56091
lfingers 7.12502
lthumb 10.7021 23.1465
rfemur -11.8629 -11.4534 15.4059
rtibia 57.0871
rfoot -7.96303 -22.4107
rtoes 0.0425628
lfemur -8.49284 0.135967 -22.3802
ltibia 30.7382
lfoot -8.85757 16.9985
ltoes -11.1539
608
root 2.63174 18.0033 31.5942 -0.192291 1.03215 -0.967104
lowerback 4.18858 3.95331 1.38194
upperback -1.15955 5.3931 1.22647
thorax -3.52841 2.667 0.106069
lowerneck -20.7228 -1.78468 1.83522
upperneck 27.869 -2.9363 -0.836314
head 12.684 -1.19727 -1.12173
rclavicle 1.01504e-014 -1.98785e-015
rhumerus -29.7227 11.2194 -83.2563
rradius 53.4282
rwrist -3.65197
rhand -12.5235 6.00154
rfingers 7.12502
rthumb 13.5525 -23.5374
lclavicle 1.01504e-014 -1.98785e-015
lhumerus -38.5207 -4.65241 77.728
lradius 44.018
lwrist 6.18165
lhand -15.4411 -6.85794
lfingers 7.12502
lthumb 10.7393 22.8476
rfemur -13.0129 -11.0898 15.2852
rtibia 56.6695
rfoot -8.77602 -22.4654
rtoes -0.521128
lfemur -8.07574 0.0926265 -22.6729
ltibia 30.6808
lfoot -8.93703 17.1771
ltoes -11.4088
609
root 2.62713 17.9994 31.6796 -0.210849 0.986704 -0.784472
lowerback 4.22973 3.53553 0.877515
upperback -1.07638 4.81366 1.40709
thorax -3.52494 2.39194 0.610066
lowerneck -20.7589 -1.58576 2.00966
upperneck 27.8467 -2.64702 -1.05472
head 12.6805 -1.08293 -1.18736
rclavicle 1.57972e-014 0
rhumerus -29.836 10.7214 -82.5215
rradius 52.962
rwrist -3.57844
rhand -12.5274 5.74093
rfingers 7.12502
rthumb 13.5488 -23.7983
lclavicle 1.57972e-014 0
lhumerus -37.4262 -5.96248 78.6438
lradius 43.7796
lwrist 5.87559
lhand -15.355 -7.09127
lfingers 7.12502
lthumb 10.8223 22.6099
rfemur -14.1655 -10.6737 15.2747
rtibia 56.1319
rfoot -9.50675 -22.6095
rtoes -1.01395
lfemur -7.70129 0.0555411 -22.856
ltibia 30.6169
lfoot -9.0097 17.2569
ltoes -11.6947
610
root 2.62095 17.9966 31.7644 -0.17154 0.949322 -0.49475
lowerback 4.2513 3.1097 0.218057
upperback -1.03861 4.21476 1.56778
thorax -3.55317 2.11004 1.18375
lowerneck -20.7313 -1.37251 2.19813
upperneck 27.8311 -2.33844 -1.28005
head 12.6682 -0.959504 -1.25408
rclavicle 1.96921e-015 1.19271e-014
rhumerus -29.9832 10.2469 -81.7771
rradius 52.4656
rwrist -3.51523
rhand -12.5488 5.47979
rfingers 7.12502
rthumb 13.5281 -24.0608
lclavicle 1.96921e-015 1.19271e-014
lhumerus -36.3671 -7.13044 79.4188
lradius 43.5395
lwrist 5.55536
lhand -15.2371 -7.27526
lfingers 7.12502
lthumb 10.9361 22.4199
rfemur -15.3501 -10.2381 15.1526
rtibia 55.4936
rfoot -10.1872 -22.7838
rtoes -1.42063
lfemur -7.37498 0.0411452 -23.1367
ltibia 30.5137
lfoot -9.04894 17.2487
ltoes -12.0211
611
root 2.61327 17.9959 31.8478 -0.0718158 0.889637 -0.120137
lowerback 4.25747 2.69528 -0.554389
upperback -1.04254 3.62442 1.70662
thorax -3.60513 1.83497 1.80051
lowerneck -20.6408 -1.1488 2.41706
upperneck 27.8019 -2.0158 -1.53024
head 12.6388 -0.830161 -1.33229
rclavicle 1.87355e-014 3.97569e-016
rhumerus -30.1566 9.75443 -81.0093
rradius 51.9386
rwrist -3.43309
rhand -12.5852 5.23841
rfingers 7.12502
rthumb 13.4931 -24.3045
lclavicle 1.87355e-014 3.97569e-016
lhumerus -35.321 -8.19853 80.0766
lradius 43.2894
lwrist 5.26382
lhand -15.112 -7.43581
lfingers 7.12502
lthumb 11.0567 22.253
rfemur -16.5793 -9.73695 14.953
rtibia 54.7434
rfoot -10.7707 -22.998
rtoes -1.76179
lfemur -7.10338 0.0668839 -23.4877
ltibia 30.3631
lfoot -9.04643 17.1635
ltoes -12.3838
612
root 2.60482 17.9974 31.9326 0.0486549 0.842911 0.311658
lowerback 4.24074 2.2904 -1.37884
upperback -1.06149 3.04298 1.82155
thorax -3.64342 1.56571 2.42534
lowerneck -20.5121 -0.931612 2.64233
upperneck 27.7673 -1.70253 -1.78313
head 12.6009 -0.704429 -1.41384
rclavicle -1.18028e-016 -4.37326e-015
rhumerus -30.3406 9.18914 -80.207
rradius 51.3822
rwrist -3.35634
rhand -12.6308 5.02004
rfingers 7.12502
rthumb 13.449 -24.5258
lclavicle -1.18028e-016 -4.37326e-015
lhumerus -34.2885 -9.25286 80.6389
lradius 43.059
lwrist 4.99934
lhand -14.966 -7.51806
lfingers 7.12502
lthumb 11.1976 22.1631
rfemur -17.7715 -9.23086 14.6751
rtibia 53.8738
rfoot -11.2776 -23.1928
rtoes -1.98005
lfemur -6.81411 0.117065 -23.8861
ltibia 30.1397
lfoot -9.02399 16.997
ltoes -12.7074
613
root 2.59519 18.0012 32.0184 0.164434 0.802295 0.720066
lowerback 4.27676 2.01707 -2.0071
upperback -1.08426 2.64467 1.86517
thorax -3.69719 1.38285 2.8527
lowerneck -20.4883 -0.87076 2.66614
upperneck 27.7742 -1.59442 -1.882
head 12.6004 -0.668779 -1.43804
rclavicle -3.80176e-015 -2.38542e-015
rhumerus -30.5984 8.15797 -79.2426
rradius 50.8343
rwrist -3.25722
rhand -12.7133 4.83121
rfingers 7.12502
rthumb 13.3696 -24.7198
lclavicle -3.80176e-015 -2.38542e-015
lhumerus -33.1443 -10.6461 81.2263
lradius 42.8303
lwrist 4.79615
lhand -14.8407 -7.6091
lfingers 7.12502
lthumb 11.3184 22.0655
rfemur -18.889 -8.69744 14.4116
rtibia 52.8661
rfoot -11.7058 -23.3658
rtoes -2.11758
lfemur -6.48068 0.188119 -24.2422
ltibia 29.8487
lfoot -8.98808 16.7696
ltoes -13.0286
